<?xml version="1.0" standalone="no"?>
<!DOCTYPE svg PUBLIC "-//W3C//DTD SVG 20010904//EN"
 "http://www.w3.org/TR/2001/REC-SVG-20010904/DTD/svg10.dtd">
<svg version="1.0" xmlns="http://www.w3.org/2000/svg"
 width="700.000000pt" height="700.000000pt" viewBox="0 0 700.000000 700.000000"
 preserveAspectRatio="xMidYMid meet">
<metadata>
Created by potrace 1.11, written by Peter Selinger 2001-2013
</metadata>
<g transform="translate(0.000000,700.000000) scale(0.100000,-0.100000)"
fill="#000000" stroke="none">
<path d="M3422 6789 c-67 -12 -142 -51 -202 -105 -30 -27 -156 -149 -280 -270
-124 -122 -268 -263 -320 -314 -52 -51 -185 -181 -295 -289 -110 -108 -207
-202 -216 -208 -14 -12 -16 -1 -17 100 -1 61 -3 119 -5 127 -2 8 -7 29 -12 45
-33 124 -158 236 -291 261 -46 9 -478 9 -552 0 -107 -12 -224 -93 -272 -186
-50 -98 -49 -89 -50 -830 l0 -695 -112 -109 c-464 -447 -611 -594 -634 -634
-69 -117 -69 -271 0 -385 38 -62 57 -82 117 -119 94 -58 113 -62 363 -65 126
-1 231 -5 235 -8 3 -3 6 -590 6 -1303 l1 -1297 23 -57 c40 -103 125 -187 231
-229 29 -11 404 -14 2327 -15 2431 -2 2336 -4 2428 44 92 47 179 172 191 273
3 24 6 614 7 1311 1 696 5 1269 9 1273 3 4 104 7 225 7 248 1 307 11 387 62
171 109 225 335 122 510 -21 36 -159 178 -362 372 -34 33 -175 169 -314 304
-139 135 -280 272 -314 304 -33 32 -176 170 -316 306 -140 136 -280 271 -310
300 -30 29 -169 163 -309 299 -140 135 -318 307 -395 382 -78 75 -184 178
-236 229 -612 593 -575 559 -654 589 -61 23 -143 30 -204 20z m-1736 -4445
c30 -11 63 -38 115 -97 103 -114 172 -182 260 -254 337 -275 768 -447 1224
-490 145 -14 473 -7 545 12 8 2 33 6 55 9 299 43 677 193 920 365 28 20 55 39
60 43 86 61 254 220 348 330 94 111 213 134 318 62 70 -48 105 -156 79 -249
-17 -62 -152 -217 -316 -365 -247 -222 -603 -423 -939 -530 -154 -49 -350 -93
-470 -106 -27 -3 -57 -7 -65 -9 -78 -22 -472 -22 -640 0 -14 1 -50 6 -80 10
-30 4 -57 8 -60 10 -3 2 -26 6 -50 10 -25 3 -97 19 -161 35 -475 120 -888 350
-1219 680 -192 192 -224 240 -225 335 0 47 6 70 26 105 36 60 59 80 120 100
56 19 91 18 155 -6z"/>
</g>
</svg>
